# xmcd
#
# Track frame offsets:
#	150
#	17586
#	34168
#	53447
#	79753
#	96575
#	114024
#	140736
#	157185
#	181733
#
# Disc length: 2750 seconds
#
# Revision: 0
# Processed by: cddbd v1.5.2PL0 Copyright (c) Steve Scherf et al.
# Submitted via: audiograbber 1.83.01
#
DISCID=780abc0a
DTITLE=Bob Dylan - Together Through Life
DYEAR=2009
DGENRE=R&B
TTITLE0=´Beyond Here Lies Nothin'
TTITLE1=Life Is Hard
TTITLE2=My Wife's Home Town
TTITLE3=If You Ever Go To Houston
TTITLE4=Forgetful Heart
TTITLE5=Jolene
TTITLE6=This Dream Of You
TTITLE7=Shake Shake Mama
TTITLE8=I Feel A Change Comin' On
TTITLE9=It's All Good
EXTD=
EXTT0=
EXTT1=
EXTT2=
EXTT3=
EXTT4=
EXTT5=
EXTT6=
EXTT7=
EXTT8=
EXTT9=
PLAYORDER=
